# WaveFront *.obj file (generated by CINEMA 4D)

mtllib ./cubes.mtl

v -1000.00000000000000 -1000.00000000000000 2433.52954101562500
v -1000.00000000000000 1000.00000000000000 2433.52954101562500
v 1000.00000000000000 -1000.00000000000000 2433.52954101562500
v 1000.00000000000000 1000.00000000000000 2433.52954101562500
v 1000.00000000000000 -1000.00000000000000 4433.52929687500000
v 1000.00000000000000 1000.00000000000000 4433.52929687500000
v -1000.00000000000000 -1000.00000000000000 4433.52929687500000
v -1000.00000000000000 1000.00000000000000 4433.52929687500000
v -4248.73632812500000 -1000.00000000000000 -1000.00000000000000
v -4248.73632812500000 1000.00000000000000 -1000.00000000000000
v -2248.73632812500000 -1000.00000000000000 -1000.00000000000000
v -2248.73632812500000 1000.00000000000000 -1000.00000000000000
v -2248.73632812500000 -1000.00000000000000 1000.00000000000000
v -2248.73632812500000 1000.00000000000000 1000.00000000000000
v -4248.73632812500000 -1000.00000000000000 1000.00000000000000
v -4248.73632812500000 1000.00000000000000 1000.00000000000000
v 830.16491699218750 -1000.00000000000000 -1000.00000000000000
v 830.16491699218750 1000.00000000000000 -1000.00000000000000
v 2830.16479492187500 -1000.00000000000000 -1000.00000000000000
v 2830.16479492187500 1000.00000000000000 -1000.00000000000000
v 2830.16479492187500 -1000.00000000000000 1000.00000000000000
v 2830.16479492187500 1000.00000000000000 1000.00000000000000
v 830.16491699218750 -1000.00000000000000 1000.00000000000000
v 830.16491699218750 1000.00000000000000 1000.00000000000000
# 24 vertices

vn 0.00000000000000 0.00000000000000 -1.00000000000000
vn 1.00000000000000 0.00000000000000 0.00000000000000
vn 0.00000000000000 0.00000000000000 1.00000000000000
vn -1.00000000000000 0.00000000000000 0.00000000000000
vn 0.00000000000000 1.00000000000000 0.00000000000000
vn 0.00000000000000 -1.00000000000000 0.00000000000000
# 6 normals

vt 0.00000000000000 -1.00000000000000 0.00000000000000
vt 0.00000000000000 0.00000000000000 0.00000000000000
vt 1.00000000000000 0.00000000000000 0.00000000000000
vt 1.00000000000000 -1.00000000000000 0.00000000000000
# 4 texture coordinates

o Cube.3
usemtl default
f 1/4/1 2/3/1 4/2/1 3/1/1
f 3/4/2 4/3/2 6/2/2 5/1/2
f 5/4/3 6/3/3 8/2/3 7/1/3
f 7/4/4 8/3/4 2/2/4 1/1/4
f 2/4/5 8/3/5 6/2/5 4/1/5
f 7/4/6 1/3/6 3/2/6 5/1/6
f 9/4/1 10/3/1 12/2/1 11/1/1
f 11/4/2 12/3/2 14/2/2 13/1/2
f 13/4/3 14/3/3 16/2/3 15/1/3
f 15/4/4 16/3/4 10/2/4 9/1/4
f 10/4/5 16/3/5 14/2/5 12/1/5
f 15/4/6 9/3/6 11/2/6 13/1/6
f 17/4/1 18/3/1 20/2/1 19/1/1
f 19/4/2 20/3/2 22/2/2 21/1/2
f 21/4/3 22/3/3 24/2/3 23/1/3
f 23/4/4 24/3/4 18/2/4 17/1/4
f 18/4/5 24/3/5 22/2/5 20/1/5
f 23/4/6 17/3/6 19/2/6 21/1/6

